G04 #@! TF.GenerationSoftware,KiCad,Pcbnew,(5.0.0)*
G04 #@! TF.CreationDate,2018-12-19T13:36:55-06:00*
G04 #@! TF.ProjectId,ESP-01_Flasher_Hardware,4553502D30315F466C61736865725F48,rev?*
G04 #@! TF.SameCoordinates,Original*
G04 #@! TF.FileFunction,Soldermask,Top*
G04 #@! TF.FilePolarity,Negative*
%FSLAX46Y46*%
G04 Gerber Fmt 4.6, Leading zero omitted, Abs format (unit mm)*
G04 Created by KiCad (PCBNEW (5.0.0)) date 12/19/18 13:36:55*
%MOMM*%
%LPD*%
G01*
G04 APERTURE LIST*
%ADD10R,1.300000X1.600000*%
%ADD11R,1.600000X1.150000*%
%ADD12R,2.100000X2.100000*%
%ADD13O,2.100000X2.100000*%
%ADD14C,2.200000*%
%ADD15C,1.700000*%
%ADD16O,2.400000X4.400000*%
%ADD17R,1.800000X2.000000*%
%ADD18C,1.924000*%
%ADD19R,0.850000X2.150000*%
G04 APERTURE END LIST*
D10*
G04 #@! TO.C,D3*
X103886000Y-67310000D03*
X103886000Y-65110000D03*
G04 #@! TD*
D11*
G04 #@! TO.C,C1*
X118176000Y-68580000D03*
X120076000Y-68580000D03*
G04 #@! TD*
D10*
G04 #@! TO.C,D1*
X107442000Y-67310000D03*
X107442000Y-65110000D03*
G04 #@! TD*
G04 #@! TO.C,D2*
X105664000Y-65110000D03*
X105664000Y-67310000D03*
G04 #@! TD*
D12*
G04 #@! TO.C,J1*
X122936000Y-91694000D03*
D13*
X120396000Y-91694000D03*
X117856000Y-91694000D03*
X115316000Y-91694000D03*
X112776000Y-91694000D03*
X110236000Y-91694000D03*
X107696000Y-91694000D03*
G04 #@! TD*
D14*
G04 #@! TO.C,J2*
X118760000Y-58420000D03*
X116260000Y-58420000D03*
X111760000Y-58420000D03*
X114260000Y-58420000D03*
D15*
X112960000Y-56290000D03*
X117560000Y-56290000D03*
D16*
X109410000Y-56290000D03*
X121110000Y-56290000D03*
G04 #@! TD*
D10*
G04 #@! TO.C,R1*
X107442000Y-60706000D03*
X107442000Y-62906000D03*
G04 #@! TD*
G04 #@! TO.C,R2*
X105664000Y-62906000D03*
X105664000Y-60706000D03*
G04 #@! TD*
G04 #@! TO.C,R3*
X103886000Y-60706000D03*
X103886000Y-62906000D03*
G04 #@! TD*
D17*
G04 #@! TO.C,SW1*
X123722000Y-80728000D03*
X123722000Y-87928000D03*
X126722000Y-80728000D03*
X126722000Y-87928000D03*
G04 #@! TD*
G04 #@! TO.C,SW2*
X103910000Y-80728000D03*
X103910000Y-87928000D03*
X106910000Y-80728000D03*
X106910000Y-87928000D03*
G04 #@! TD*
D18*
G04 #@! TO.C,U1*
X119126000Y-87376000D03*
X119126000Y-84836000D03*
X116586000Y-87376000D03*
X116586000Y-84836000D03*
X114046000Y-87376000D03*
X114046000Y-84836000D03*
X111506000Y-87376000D03*
X111506000Y-84836000D03*
G04 #@! TD*
D19*
G04 #@! TO.C,U2*
X111091000Y-79800000D03*
X111741000Y-79800000D03*
X112391000Y-79800000D03*
X113041000Y-79800000D03*
X113691000Y-79800000D03*
X114341000Y-79800000D03*
X114991000Y-79800000D03*
X115641000Y-79800000D03*
X116291000Y-79800000D03*
X116941000Y-79800000D03*
X117591000Y-79800000D03*
X118241000Y-79800000D03*
X118891000Y-79800000D03*
X119541000Y-79800000D03*
X119541000Y-72600000D03*
X118891000Y-72600000D03*
X118241000Y-72600000D03*
X117591000Y-72600000D03*
X116941000Y-72600000D03*
X116291000Y-72600000D03*
X115641000Y-72600000D03*
X114991000Y-72600000D03*
X114341000Y-72600000D03*
X113691000Y-72600000D03*
X113041000Y-72600000D03*
X112391000Y-72600000D03*
X111741000Y-72600000D03*
X111091000Y-72600000D03*
G04 #@! TD*
M02*
