G04 #@! TF.GenerationSoftware,KiCad,Pcbnew,(5.0.0)*
G04 #@! TF.CreationDate,2018-12-19T13:36:55-06:00*
G04 #@! TF.ProjectId,ESP-01_Flasher_Hardware,4553502D30315F466C61736865725F48,rev?*
G04 #@! TF.SameCoordinates,Original*
G04 #@! TF.FileFunction,Copper,L1,Top,Signal*
G04 #@! TF.FilePolarity,Positive*
%FSLAX46Y46*%
G04 Gerber Fmt 4.6, Leading zero omitted, Abs format (unit mm)*
G04 Created by KiCad (PCBNEW (5.0.0)) date 12/19/18 13:36:55*
%MOMM*%
%LPD*%
G01*
G04 APERTURE LIST*
G04 #@! TA.AperFunction,SMDPad,CuDef*
%ADD10R,0.900000X1.200000*%
G04 #@! TD*
G04 #@! TA.AperFunction,SMDPad,CuDef*
%ADD11R,1.200000X0.750000*%
G04 #@! TD*
G04 #@! TA.AperFunction,ComponentPad*
%ADD12R,1.700000X1.700000*%
G04 #@! TD*
G04 #@! TA.AperFunction,ComponentPad*
%ADD13O,1.700000X1.700000*%
G04 #@! TD*
G04 #@! TA.AperFunction,ComponentPad*
%ADD14C,1.800000*%
G04 #@! TD*
G04 #@! TA.AperFunction,ComponentPad*
%ADD15O,2.000000X4.000000*%
G04 #@! TD*
G04 #@! TA.AperFunction,SMDPad,CuDef*
%ADD16R,1.400000X1.600000*%
G04 #@! TD*
G04 #@! TA.AperFunction,ComponentPad*
%ADD17C,1.524000*%
G04 #@! TD*
G04 #@! TA.AperFunction,SMDPad,CuDef*
%ADD18R,0.450000X1.750000*%
G04 #@! TD*
G04 #@! TA.AperFunction,ViaPad*
%ADD19C,0.800000*%
G04 #@! TD*
G04 #@! TA.AperFunction,Conductor*
%ADD20C,0.254000*%
G04 #@! TD*
G04 #@! TA.AperFunction,Conductor*
%ADD21C,0.381000*%
G04 #@! TD*
G04 APERTURE END LIST*
D10*
G04 #@! TO.P,D3,1*
G04 #@! TO.N,GND*
X103886000Y-67310000D03*
G04 #@! TO.P,D3,2*
G04 #@! TO.N,Net-(D3-Pad2)*
X103886000Y-65110000D03*
G04 #@! TD*
D11*
G04 #@! TO.P,C1,1*
G04 #@! TO.N,+3V3*
X118176000Y-68580000D03*
G04 #@! TO.P,C1,2*
G04 #@! TO.N,GND*
X120076000Y-68580000D03*
G04 #@! TD*
D10*
G04 #@! TO.P,D1,1*
G04 #@! TO.N,Net-(D1-Pad1)*
X107442000Y-67310000D03*
G04 #@! TO.P,D1,2*
G04 #@! TO.N,Net-(D1-Pad2)*
X107442000Y-65110000D03*
G04 #@! TD*
G04 #@! TO.P,D2,2*
G04 #@! TO.N,Net-(D2-Pad2)*
X105664000Y-65110000D03*
G04 #@! TO.P,D2,1*
G04 #@! TO.N,Net-(D2-Pad1)*
X105664000Y-67310000D03*
G04 #@! TD*
D12*
G04 #@! TO.P,J1,1*
G04 #@! TO.N,+5V*
X122936000Y-91694000D03*
D13*
G04 #@! TO.P,J1,2*
G04 #@! TO.N,+3V3*
X120396000Y-91694000D03*
G04 #@! TO.P,J1,3*
G04 #@! TO.N,FT_Rx*
X117856000Y-91694000D03*
G04 #@! TO.P,J1,4*
G04 #@! TO.N,FT_Tx*
X115316000Y-91694000D03*
G04 #@! TO.P,J1,5*
G04 #@! TO.N,RTS*
X112776000Y-91694000D03*
G04 #@! TO.P,J1,6*
G04 #@! TO.N,DTR*
X110236000Y-91694000D03*
G04 #@! TO.P,J1,7*
G04 #@! TO.N,GND*
X107696000Y-91694000D03*
G04 #@! TD*
D14*
G04 #@! TO.P,J2,4*
G04 #@! TO.N,GND*
X118760000Y-58420000D03*
G04 #@! TO.P,J2,3*
G04 #@! TO.N,D+*
X116260000Y-58420000D03*
G04 #@! TO.P,J2,1*
G04 #@! TO.N,+5V*
X111760000Y-58420000D03*
G04 #@! TO.P,J2,2*
G04 #@! TO.N,D-*
X114260000Y-58420000D03*
D15*
G04 #@! TO.P,J2,5*
G04 #@! TO.N,GND*
X109410000Y-56290000D03*
X121110000Y-56290000D03*
G04 #@! TD*
D10*
G04 #@! TO.P,R1,1*
G04 #@! TO.N,+5V*
X107442000Y-60706000D03*
G04 #@! TO.P,R1,2*
G04 #@! TO.N,Net-(D1-Pad2)*
X107442000Y-62906000D03*
G04 #@! TD*
G04 #@! TO.P,R2,2*
G04 #@! TO.N,Net-(D2-Pad2)*
X105664000Y-62906000D03*
G04 #@! TO.P,R2,1*
G04 #@! TO.N,+5V*
X105664000Y-60706000D03*
G04 #@! TD*
G04 #@! TO.P,R3,1*
G04 #@! TO.N,+5V*
X103886000Y-60706000D03*
G04 #@! TO.P,R3,2*
G04 #@! TO.N,Net-(D3-Pad2)*
X103886000Y-62906000D03*
G04 #@! TD*
D16*
G04 #@! TO.P,SW1,1*
G04 #@! TO.N,Rst*
X123722000Y-80728000D03*
X123722000Y-87928000D03*
G04 #@! TO.P,SW1,2*
G04 #@! TO.N,GND*
X126722000Y-80728000D03*
X126722000Y-87928000D03*
G04 #@! TD*
G04 #@! TO.P,SW2,2*
G04 #@! TO.N,GND*
X103910000Y-80728000D03*
X103910000Y-87928000D03*
G04 #@! TO.P,SW2,1*
G04 #@! TO.N,Flash*
X106910000Y-80728000D03*
X106910000Y-87928000D03*
G04 #@! TD*
D17*
G04 #@! TO.P,U1,8*
G04 #@! TO.N,+3V3*
X119126000Y-87376000D03*
G04 #@! TO.P,U1,7*
G04 #@! TO.N,FT_Tx*
X119126000Y-84836000D03*
G04 #@! TO.P,U1,6*
G04 #@! TO.N,Rst*
X116586000Y-87376000D03*
G04 #@! TO.P,U1,5*
G04 #@! TO.N,Flash*
X116586000Y-84836000D03*
G04 #@! TO.P,U1,4*
G04 #@! TO.N,+3V3*
X114046000Y-87376000D03*
G04 #@! TO.P,U1,3*
G04 #@! TO.N,N/C*
X114046000Y-84836000D03*
G04 #@! TO.P,U1,2*
G04 #@! TO.N,FT_Rx*
X111506000Y-87376000D03*
G04 #@! TO.P,U1,1*
G04 #@! TO.N,GND*
X111506000Y-84836000D03*
G04 #@! TD*
D18*
G04 #@! TO.P,U2,1*
G04 #@! TO.N,FT_Tx*
X111091000Y-79800000D03*
G04 #@! TO.P,U2,2*
G04 #@! TO.N,DTR*
X111741000Y-79800000D03*
G04 #@! TO.P,U2,3*
G04 #@! TO.N,RTS*
X112391000Y-79800000D03*
G04 #@! TO.P,U2,4*
G04 #@! TO.N,+5V*
X113041000Y-79800000D03*
G04 #@! TO.P,U2,5*
G04 #@! TO.N,FT_Rx*
X113691000Y-79800000D03*
G04 #@! TO.P,U2,6*
G04 #@! TO.N,N/C*
X114341000Y-79800000D03*
G04 #@! TO.P,U2,7*
G04 #@! TO.N,GND*
X114991000Y-79800000D03*
G04 #@! TO.P,U2,8*
G04 #@! TO.N,N/C*
X115641000Y-79800000D03*
G04 #@! TO.P,U2,9*
X116291000Y-79800000D03*
G04 #@! TO.P,U2,10*
X116941000Y-79800000D03*
G04 #@! TO.P,U2,11*
X117591000Y-79800000D03*
G04 #@! TO.P,U2,12*
X118241000Y-79800000D03*
G04 #@! TO.P,U2,13*
X118891000Y-79800000D03*
G04 #@! TO.P,U2,14*
X119541000Y-79800000D03*
G04 #@! TO.P,U2,15*
G04 #@! TO.N,D+*
X119541000Y-72600000D03*
G04 #@! TO.P,U2,16*
G04 #@! TO.N,D-*
X118891000Y-72600000D03*
G04 #@! TO.P,U2,17*
G04 #@! TO.N,+3V3*
X118241000Y-72600000D03*
G04 #@! TO.P,U2,18*
G04 #@! TO.N,GND*
X117591000Y-72600000D03*
G04 #@! TO.P,U2,19*
G04 #@! TO.N,+5V*
X116941000Y-72600000D03*
G04 #@! TO.P,U2,20*
X116291000Y-72600000D03*
G04 #@! TO.P,U2,21*
G04 #@! TO.N,GND*
X115641000Y-72600000D03*
G04 #@! TO.P,U2,22*
G04 #@! TO.N,Net-(D1-Pad1)*
X114991000Y-72600000D03*
G04 #@! TO.P,U2,23*
G04 #@! TO.N,Net-(D2-Pad1)*
X114341000Y-72600000D03*
G04 #@! TO.P,U2,24*
G04 #@! TO.N,N/C*
X113691000Y-72600000D03*
G04 #@! TO.P,U2,25*
G04 #@! TO.N,GND*
X113041000Y-72600000D03*
G04 #@! TO.P,U2,26*
X112391000Y-72600000D03*
G04 #@! TO.P,U2,27*
G04 #@! TO.N,N/C*
X111741000Y-72600000D03*
G04 #@! TO.P,U2,28*
X111091000Y-72600000D03*
G04 #@! TD*
D19*
G04 #@! TO.N,+3V3*
X121666000Y-74930000D03*
X121666000Y-80264000D03*
G04 #@! TO.N,GND*
X115570000Y-75438000D03*
X115570000Y-77470000D03*
X111506000Y-64516000D03*
X106426000Y-72136000D03*
X108966000Y-87376000D03*
G04 #@! TO.N,FT_Tx*
X110744000Y-82042000D03*
G04 #@! TO.N,RTS*
X112776000Y-83312000D03*
G04 #@! TO.N,D+*
X119668003Y-70104000D03*
G04 #@! TO.N,D-*
X118618000Y-70104000D03*
G04 #@! TO.N,Rst*
X123722000Y-84328000D03*
G04 #@! TO.N,Flash*
X106910000Y-84328000D03*
G04 #@! TD*
D20*
G04 #@! TO.N,+3V3*
X118241000Y-72600000D02*
X118241000Y-71026000D01*
X118176000Y-69209000D02*
X118176000Y-68580000D01*
X117890999Y-69494001D02*
X118176000Y-69209000D01*
X117890999Y-70675999D02*
X117890999Y-69494001D01*
X118241000Y-71026000D02*
X117890999Y-70675999D01*
X119442000Y-74930000D02*
X121666000Y-74930000D01*
X118241000Y-72600000D02*
X118241000Y-73729000D01*
X118241000Y-73729000D02*
X119442000Y-74930000D01*
D21*
X120396000Y-88646000D02*
X119126000Y-87376000D01*
X120396000Y-91694000D02*
X120396000Y-88646000D01*
X120396000Y-88646000D02*
X120396000Y-81534000D01*
X120396000Y-81534000D02*
X121666000Y-80264000D01*
D20*
G04 #@! TO.N,GND*
X114991000Y-79800000D02*
X114991000Y-81351000D01*
X114991000Y-79800000D02*
X114991000Y-78303000D01*
X117591000Y-72600000D02*
X117591000Y-73903000D01*
X115641000Y-72600000D02*
X115641000Y-74097000D01*
X117248999Y-71011489D02*
X117248999Y-67663001D01*
X117591000Y-72600000D02*
X117591000Y-71353490D01*
X117591000Y-71353490D02*
X117248999Y-71011489D01*
X117248999Y-67663001D02*
X117602000Y-67310000D01*
X115641000Y-74097000D02*
X115641000Y-75367000D01*
X115641000Y-75367000D02*
X115570000Y-75438000D01*
X117591000Y-73903000D02*
X119380000Y-75692000D01*
X119380000Y-75692000D02*
X123190000Y-75692000D01*
G04 #@! TO.N,Net-(D1-Pad1)*
X107117000Y-67635000D02*
X107442000Y-67310000D01*
X114991000Y-70104000D02*
X114991000Y-69271000D01*
X114991000Y-72600000D02*
X114991000Y-70104000D01*
X114991000Y-69271000D02*
X114554000Y-68834000D01*
X114554000Y-68834000D02*
X107950000Y-68834000D01*
X107442000Y-68326000D02*
X107442000Y-67310000D01*
X107950000Y-68834000D02*
X107442000Y-68326000D01*
D21*
G04 #@! TO.N,Net-(D1-Pad2)*
X107442000Y-63246000D02*
X107442000Y-62992000D01*
X107442000Y-62906000D02*
X107442000Y-65110000D01*
G04 #@! TO.N,Net-(D2-Pad2)*
X105664000Y-62906000D02*
X105664000Y-65110000D01*
D20*
G04 #@! TO.N,Net-(D2-Pad1)*
X114341000Y-72600000D02*
X114341000Y-69891000D01*
X114341000Y-69891000D02*
X113792000Y-69342000D01*
X113792000Y-69342000D02*
X106172000Y-69342000D01*
X105664000Y-68834000D02*
X105664000Y-67310000D01*
X106172000Y-69342000D02*
X105664000Y-68834000D01*
D21*
G04 #@! TO.N,Net-(D3-Pad2)*
X103886000Y-62906000D02*
X103886000Y-65110000D01*
G04 #@! TO.N,+5V*
X107442000Y-60706000D02*
X103886000Y-60706000D01*
X116586000Y-72600000D02*
X116291000Y-72600000D01*
X116941000Y-72600000D02*
X116586000Y-72600000D01*
D20*
X116586000Y-72600000D02*
X116586000Y-75946000D01*
X113549000Y-76454000D02*
X113041000Y-76962000D01*
X116078000Y-76454000D02*
X113549000Y-76454000D01*
X113041000Y-79800000D02*
X113041000Y-76962000D01*
D21*
X124167000Y-91694000D02*
X125222000Y-90639000D01*
X122936000Y-91694000D02*
X124167000Y-91694000D01*
X125222000Y-90639000D02*
X125222000Y-76708000D01*
X125222000Y-76708000D02*
X124968000Y-76454000D01*
X124968000Y-76454000D02*
X116586000Y-76454000D01*
D20*
X116586000Y-75946000D02*
X116586000Y-76454000D01*
X116078000Y-76454000D02*
X116586000Y-76454000D01*
D21*
X107442000Y-60706000D02*
X111506000Y-60706000D01*
X116586000Y-61468000D02*
X116586000Y-61145000D01*
X116586000Y-72600000D02*
X116586000Y-61468000D01*
X116586000Y-61214000D02*
X116586000Y-61468000D01*
X116078000Y-60706000D02*
X116586000Y-61214000D01*
X111760000Y-58420000D02*
X111760000Y-60706000D01*
X111760000Y-60706000D02*
X116078000Y-60706000D01*
X111506000Y-60706000D02*
X111760000Y-60706000D01*
G04 #@! TO.N,FT_Rx*
X112267999Y-88137999D02*
X111506000Y-87376000D01*
X114016501Y-89886501D02*
X112267999Y-88137999D01*
X114016501Y-92172501D02*
X114016501Y-89886501D01*
X114778501Y-92934501D02*
X114016501Y-92172501D01*
X116615499Y-92934501D02*
X114778501Y-92934501D01*
X117856000Y-91694000D02*
X116615499Y-92934501D01*
D20*
X113691000Y-81635000D02*
X113691000Y-81534000D01*
X113691000Y-81534000D02*
X113691000Y-79800000D01*
X113691000Y-82703000D02*
X113691000Y-81534000D01*
X115316000Y-84328000D02*
X113691000Y-82703000D01*
X115316000Y-85598000D02*
X115316000Y-84328000D01*
X114808000Y-86106000D02*
X115316000Y-85598000D01*
X111506000Y-87376000D02*
X112776000Y-86106000D01*
X112776000Y-86106000D02*
X114808000Y-86106000D01*
D21*
G04 #@! TO.N,FT_Tx*
X118364001Y-85597999D02*
X119126000Y-84836000D01*
X117973499Y-85988501D02*
X118364001Y-85597999D01*
X117973499Y-89036501D02*
X117973499Y-85988501D01*
X115316000Y-91694000D02*
X117973499Y-89036501D01*
D20*
X111091000Y-79800000D02*
X111091000Y-81695000D01*
X111091000Y-81695000D02*
X110744000Y-82042000D01*
G04 #@! TO.N,RTS*
X112391000Y-81911000D02*
X112391000Y-79800000D01*
X112391000Y-81911000D02*
X112391000Y-82927000D01*
X112391000Y-82927000D02*
X112776000Y-83312000D01*
G04 #@! TO.N,DTR*
X110236000Y-91694000D02*
X110236000Y-84074000D01*
X111741000Y-82569000D02*
X111741000Y-79800000D01*
X110236000Y-84074000D02*
X111741000Y-82569000D01*
G04 #@! TO.N,D+*
X119541000Y-72600000D02*
X119541000Y-70231003D01*
X119541000Y-70231003D02*
X119668003Y-70104000D01*
G04 #@! TO.N,D-*
X118891000Y-72600000D02*
X118891000Y-70377000D01*
X118891000Y-70377000D02*
X118618000Y-70104000D01*
D21*
G04 #@! TO.N,Rst*
X123722000Y-80728000D02*
X123722000Y-81909000D01*
X123722000Y-84328000D02*
X123722000Y-87928000D01*
X123722000Y-81909000D02*
X123722000Y-84328000D01*
G04 #@! TO.N,Flash*
X106910000Y-80728000D02*
X106910000Y-84328000D01*
X106910000Y-84328000D02*
X106910000Y-87928000D01*
G04 #@! TD*
D20*
G04 #@! TO.N,GND*
G36*
X125675698Y-54112958D02*
X126100893Y-54281305D01*
X126470858Y-54550101D01*
X126762356Y-54902462D01*
X126957067Y-55316244D01*
X127049093Y-55798662D01*
X127052000Y-55891164D01*
X127052001Y-99015326D01*
X126989042Y-99513699D01*
X126820697Y-99938889D01*
X126551899Y-100308859D01*
X126199541Y-100600355D01*
X125785756Y-100795067D01*
X125303339Y-100887093D01*
X125210836Y-100890000D01*
X105454667Y-100890000D01*
X104956301Y-100827042D01*
X104531111Y-100658697D01*
X104161141Y-100389899D01*
X103869645Y-100037541D01*
X103674933Y-99623756D01*
X103582907Y-99141339D01*
X103580000Y-99048836D01*
X103580000Y-79928000D01*
X105562560Y-79928000D01*
X105562560Y-81528000D01*
X105611843Y-81775765D01*
X105752191Y-81985809D01*
X105962235Y-82126157D01*
X106084500Y-82150477D01*
X106084501Y-83689788D01*
X106032569Y-83741720D01*
X105875000Y-84122126D01*
X105875000Y-84533874D01*
X106032569Y-84914280D01*
X106084500Y-84966211D01*
X106084501Y-86505523D01*
X105962235Y-86529843D01*
X105752191Y-86670191D01*
X105611843Y-86880235D01*
X105562560Y-87128000D01*
X105562560Y-88728000D01*
X105611843Y-88975765D01*
X105752191Y-89185809D01*
X105962235Y-89326157D01*
X106210000Y-89375440D01*
X107610000Y-89375440D01*
X107857765Y-89326157D01*
X108067809Y-89185809D01*
X108208157Y-88975765D01*
X108257440Y-88728000D01*
X108257440Y-87128000D01*
X108208157Y-86880235D01*
X108067809Y-86670191D01*
X107857765Y-86529843D01*
X107735500Y-86505523D01*
X107735500Y-84966211D01*
X107787431Y-84914280D01*
X107945000Y-84533874D01*
X107945000Y-84122126D01*
X107787431Y-83741720D01*
X107735500Y-83689789D01*
X107735500Y-82150477D01*
X107857765Y-82126157D01*
X108067809Y-81985809D01*
X108208157Y-81775765D01*
X108257440Y-81528000D01*
X108257440Y-79928000D01*
X108208157Y-79680235D01*
X108067809Y-79470191D01*
X107857765Y-79329843D01*
X107610000Y-79280560D01*
X106210000Y-79280560D01*
X105962235Y-79329843D01*
X105752191Y-79470191D01*
X105611843Y-79680235D01*
X105562560Y-79928000D01*
X103580000Y-79928000D01*
X103580000Y-71725000D01*
X110218560Y-71725000D01*
X110218560Y-73475000D01*
X110267843Y-73722765D01*
X110408191Y-73932809D01*
X110618235Y-74073157D01*
X110866000Y-74122440D01*
X111316000Y-74122440D01*
X111416000Y-74102549D01*
X111516000Y-74122440D01*
X111966000Y-74122440D01*
X112213765Y-74073157D01*
X112423809Y-73932809D01*
X112564157Y-73722765D01*
X112613440Y-73475000D01*
X112613440Y-71725000D01*
X112564157Y-71477235D01*
X112423809Y-71267191D01*
X112213765Y-71126843D01*
X111966000Y-71077560D01*
X111516000Y-71077560D01*
X111416000Y-71097451D01*
X111316000Y-71077560D01*
X110866000Y-71077560D01*
X110618235Y-71126843D01*
X110408191Y-71267191D01*
X110267843Y-71477235D01*
X110218560Y-71725000D01*
X103580000Y-71725000D01*
X103580000Y-66357440D01*
X104336000Y-66357440D01*
X104583765Y-66308157D01*
X104775000Y-66180377D01*
X104819334Y-66210000D01*
X104756191Y-66252191D01*
X104615843Y-66462235D01*
X104566560Y-66710000D01*
X104566560Y-67910000D01*
X104615843Y-68157765D01*
X104756191Y-68367809D01*
X104902000Y-68465236D01*
X104902000Y-68758956D01*
X104887073Y-68834000D01*
X104902000Y-68909043D01*
X104902000Y-68909047D01*
X104946212Y-69131316D01*
X105114629Y-69383371D01*
X105178254Y-69425884D01*
X105580116Y-69827746D01*
X105622629Y-69891371D01*
X105820641Y-70023678D01*
X105874681Y-70059787D01*
X105874682Y-70059787D01*
X105874683Y-70059788D01*
X106096952Y-70104000D01*
X106096956Y-70104000D01*
X106171999Y-70118927D01*
X106247042Y-70104000D01*
X113476370Y-70104000D01*
X113579001Y-70206631D01*
X113579001Y-71077560D01*
X113466000Y-71077560D01*
X113218235Y-71126843D01*
X113008191Y-71267191D01*
X112867843Y-71477235D01*
X112818560Y-71725000D01*
X112818560Y-73475000D01*
X112867843Y-73722765D01*
X113008191Y-73932809D01*
X113218235Y-74073157D01*
X113466000Y-74122440D01*
X113916000Y-74122440D01*
X114016000Y-74102549D01*
X114116000Y-74122440D01*
X114566000Y-74122440D01*
X114666000Y-74102549D01*
X114766000Y-74122440D01*
X115216000Y-74122440D01*
X115463765Y-74073157D01*
X115641000Y-73954731D01*
X115818235Y-74073157D01*
X115824000Y-74074304D01*
X115824001Y-75692000D01*
X113624042Y-75692000D01*
X113548999Y-75677073D01*
X113473956Y-75692000D01*
X113473952Y-75692000D01*
X113251683Y-75736212D01*
X113251682Y-75736213D01*
X113251681Y-75736213D01*
X113197641Y-75772322D01*
X112999629Y-75904629D01*
X112957116Y-75968254D01*
X112555252Y-76370118D01*
X112491630Y-76412629D01*
X112449119Y-76476251D01*
X112449118Y-76476252D01*
X112323213Y-76664683D01*
X112264073Y-76962000D01*
X112279001Y-77037048D01*
X112279001Y-78277560D01*
X112166000Y-78277560D01*
X112066000Y-78297451D01*
X111966000Y-78277560D01*
X111516000Y-78277560D01*
X111416000Y-78297451D01*
X111316000Y-78277560D01*
X110866000Y-78277560D01*
X110618235Y-78326843D01*
X110408191Y-78467191D01*
X110267843Y-78677235D01*
X110218560Y-78925000D01*
X110218560Y-80675000D01*
X110267843Y-80922765D01*
X110329001Y-81014293D01*
X110329001Y-81093622D01*
X110157720Y-81164569D01*
X109866569Y-81455720D01*
X109709000Y-81836126D01*
X109709000Y-82247874D01*
X109866569Y-82628280D01*
X110157720Y-82919431D01*
X110267476Y-82964893D01*
X109750251Y-83482119D01*
X109686630Y-83524629D01*
X109644119Y-83588251D01*
X109644118Y-83588252D01*
X109518213Y-83776683D01*
X109459073Y-84074000D01*
X109474001Y-84149048D01*
X109474000Y-90417158D01*
X109165375Y-90623375D01*
X108837161Y-91114582D01*
X108721908Y-91694000D01*
X108837161Y-92273418D01*
X109165375Y-92764625D01*
X109656582Y-93092839D01*
X110089744Y-93179000D01*
X110382256Y-93179000D01*
X110815418Y-93092839D01*
X111306625Y-92764625D01*
X111506000Y-92466239D01*
X111705375Y-92764625D01*
X112196582Y-93092839D01*
X112629744Y-93179000D01*
X112922256Y-93179000D01*
X113355418Y-93092839D01*
X113603586Y-92927018D01*
X114137294Y-93460727D01*
X114183349Y-93529653D01*
X114252274Y-93575707D01*
X114456406Y-93712105D01*
X114778501Y-93776173D01*
X114859804Y-93760001D01*
X116534198Y-93760001D01*
X116615499Y-93776173D01*
X116696800Y-93760001D01*
X116696802Y-93760001D01*
X116937593Y-93712105D01*
X117210651Y-93529653D01*
X117256708Y-93460724D01*
X117566855Y-93150578D01*
X117709744Y-93179000D01*
X118002256Y-93179000D01*
X118435418Y-93092839D01*
X118926625Y-92764625D01*
X119126000Y-92466239D01*
X119325375Y-92764625D01*
X119816582Y-93092839D01*
X120249744Y-93179000D01*
X120542256Y-93179000D01*
X120975418Y-93092839D01*
X121466625Y-92764625D01*
X121478816Y-92746381D01*
X121487843Y-92791765D01*
X121628191Y-93001809D01*
X121838235Y-93142157D01*
X122086000Y-93191440D01*
X123786000Y-93191440D01*
X124033765Y-93142157D01*
X124243809Y-93001809D01*
X124384157Y-92791765D01*
X124433440Y-92544000D01*
X124433440Y-92482674D01*
X124489094Y-92471604D01*
X124762152Y-92289152D01*
X124808209Y-92220223D01*
X125748226Y-91280207D01*
X125817152Y-91234152D01*
X125999604Y-90961094D01*
X126047500Y-90720303D01*
X126047500Y-90720299D01*
X126063671Y-90639001D01*
X126047500Y-90557703D01*
X126047500Y-76789297D01*
X126063671Y-76707999D01*
X126047500Y-76626702D01*
X126047500Y-76626697D01*
X125999604Y-76385906D01*
X125817152Y-76112848D01*
X125748223Y-76066791D01*
X125609209Y-75927777D01*
X125563152Y-75858848D01*
X125290094Y-75676396D01*
X125049303Y-75628500D01*
X125049301Y-75628500D01*
X124968000Y-75612328D01*
X124886699Y-75628500D01*
X122431211Y-75628500D01*
X122543431Y-75516280D01*
X122701000Y-75135874D01*
X122701000Y-74724126D01*
X122543431Y-74343720D01*
X122252280Y-74052569D01*
X121871874Y-73895000D01*
X121460126Y-73895000D01*
X121079720Y-74052569D01*
X120964289Y-74168000D01*
X119757630Y-74168000D01*
X119712070Y-74122440D01*
X119766000Y-74122440D01*
X120013765Y-74073157D01*
X120223809Y-73932809D01*
X120364157Y-73722765D01*
X120413440Y-73475000D01*
X120413440Y-71725000D01*
X120364157Y-71477235D01*
X120303000Y-71385708D01*
X120303000Y-70932714D01*
X120545434Y-70690280D01*
X120703003Y-70309874D01*
X120703003Y-69898126D01*
X120545434Y-69517720D01*
X120254283Y-69226569D01*
X119873877Y-69069000D01*
X119462129Y-69069000D01*
X119395254Y-69096700D01*
X119423440Y-68955000D01*
X119423440Y-68205000D01*
X119374157Y-67957235D01*
X119233809Y-67747191D01*
X119023765Y-67606843D01*
X118776000Y-67557560D01*
X117576000Y-67557560D01*
X117411500Y-67590281D01*
X117411500Y-61295297D01*
X117427671Y-61213999D01*
X117411500Y-61132701D01*
X117411500Y-61063698D01*
X117363604Y-60822906D01*
X117181152Y-60549848D01*
X116908094Y-60367396D01*
X116906514Y-60367082D01*
X116719209Y-60179776D01*
X116673152Y-60110848D01*
X116439910Y-59955000D01*
X116565330Y-59955000D01*
X117129507Y-59721310D01*
X117561310Y-59289507D01*
X117795000Y-58725330D01*
X117795000Y-58114670D01*
X117571461Y-57575000D01*
X117815602Y-57575000D01*
X118287894Y-57379371D01*
X118649371Y-57017894D01*
X118845000Y-56545602D01*
X118845000Y-56034398D01*
X118649371Y-55562106D01*
X118287894Y-55200629D01*
X117815602Y-55005000D01*
X117304398Y-55005000D01*
X116832106Y-55200629D01*
X116470629Y-55562106D01*
X116275000Y-56034398D01*
X116275000Y-56545602D01*
X116415583Y-56885000D01*
X115954670Y-56885000D01*
X115390493Y-57118690D01*
X115260000Y-57249183D01*
X115129507Y-57118690D01*
X114565330Y-56885000D01*
X114104417Y-56885000D01*
X114245000Y-56545602D01*
X114245000Y-56034398D01*
X114049371Y-55562106D01*
X113687894Y-55200629D01*
X113215602Y-55005000D01*
X112704398Y-55005000D01*
X112232106Y-55200629D01*
X111870629Y-55562106D01*
X111675000Y-56034398D01*
X111675000Y-56545602D01*
X111815583Y-56885000D01*
X111454670Y-56885000D01*
X110890493Y-57118690D01*
X110458690Y-57550493D01*
X110225000Y-58114670D01*
X110225000Y-58725330D01*
X110458690Y-59289507D01*
X110890493Y-59721310D01*
X110934501Y-59739539D01*
X110934501Y-59880500D01*
X108494586Y-59880500D01*
X108490157Y-59858235D01*
X108349809Y-59648191D01*
X108139765Y-59507843D01*
X107892000Y-59458560D01*
X106992000Y-59458560D01*
X106744235Y-59507843D01*
X106553000Y-59635623D01*
X106361765Y-59507843D01*
X106114000Y-59458560D01*
X105214000Y-59458560D01*
X104966235Y-59507843D01*
X104775000Y-59635623D01*
X104583765Y-59507843D01*
X104336000Y-59458560D01*
X103580000Y-59458560D01*
X103580000Y-55924666D01*
X103642958Y-55426302D01*
X103811305Y-55001107D01*
X104080101Y-54631142D01*
X104432462Y-54339644D01*
X104846244Y-54144933D01*
X105328662Y-54052907D01*
X105421164Y-54050000D01*
X125177334Y-54050000D01*
X125675698Y-54112958D01*
X125675698Y-54112958D01*
G37*
X125675698Y-54112958D02*
X126100893Y-54281305D01*
X126470858Y-54550101D01*
X126762356Y-54902462D01*
X126957067Y-55316244D01*
X127049093Y-55798662D01*
X127052000Y-55891164D01*
X127052001Y-99015326D01*
X126989042Y-99513699D01*
X126820697Y-99938889D01*
X126551899Y-100308859D01*
X126199541Y-100600355D01*
X125785756Y-100795067D01*
X125303339Y-100887093D01*
X125210836Y-100890000D01*
X105454667Y-100890000D01*
X104956301Y-100827042D01*
X104531111Y-100658697D01*
X104161141Y-100389899D01*
X103869645Y-100037541D01*
X103674933Y-99623756D01*
X103582907Y-99141339D01*
X103580000Y-99048836D01*
X103580000Y-79928000D01*
X105562560Y-79928000D01*
X105562560Y-81528000D01*
X105611843Y-81775765D01*
X105752191Y-81985809D01*
X105962235Y-82126157D01*
X106084500Y-82150477D01*
X106084501Y-83689788D01*
X106032569Y-83741720D01*
X105875000Y-84122126D01*
X105875000Y-84533874D01*
X106032569Y-84914280D01*
X106084500Y-84966211D01*
X106084501Y-86505523D01*
X105962235Y-86529843D01*
X105752191Y-86670191D01*
X105611843Y-86880235D01*
X105562560Y-87128000D01*
X105562560Y-88728000D01*
X105611843Y-88975765D01*
X105752191Y-89185809D01*
X105962235Y-89326157D01*
X106210000Y-89375440D01*
X107610000Y-89375440D01*
X107857765Y-89326157D01*
X108067809Y-89185809D01*
X108208157Y-88975765D01*
X108257440Y-88728000D01*
X108257440Y-87128000D01*
X108208157Y-86880235D01*
X108067809Y-86670191D01*
X107857765Y-86529843D01*
X107735500Y-86505523D01*
X107735500Y-84966211D01*
X107787431Y-84914280D01*
X107945000Y-84533874D01*
X107945000Y-84122126D01*
X107787431Y-83741720D01*
X107735500Y-83689789D01*
X107735500Y-82150477D01*
X107857765Y-82126157D01*
X108067809Y-81985809D01*
X108208157Y-81775765D01*
X108257440Y-81528000D01*
X108257440Y-79928000D01*
X108208157Y-79680235D01*
X108067809Y-79470191D01*
X107857765Y-79329843D01*
X107610000Y-79280560D01*
X106210000Y-79280560D01*
X105962235Y-79329843D01*
X105752191Y-79470191D01*
X105611843Y-79680235D01*
X105562560Y-79928000D01*
X103580000Y-79928000D01*
X103580000Y-71725000D01*
X110218560Y-71725000D01*
X110218560Y-73475000D01*
X110267843Y-73722765D01*
X110408191Y-73932809D01*
X110618235Y-74073157D01*
X110866000Y-74122440D01*
X111316000Y-74122440D01*
X111416000Y-74102549D01*
X111516000Y-74122440D01*
X111966000Y-74122440D01*
X112213765Y-74073157D01*
X112423809Y-73932809D01*
X112564157Y-73722765D01*
X112613440Y-73475000D01*
X112613440Y-71725000D01*
X112564157Y-71477235D01*
X112423809Y-71267191D01*
X112213765Y-71126843D01*
X111966000Y-71077560D01*
X111516000Y-71077560D01*
X111416000Y-71097451D01*
X111316000Y-71077560D01*
X110866000Y-71077560D01*
X110618235Y-71126843D01*
X110408191Y-71267191D01*
X110267843Y-71477235D01*
X110218560Y-71725000D01*
X103580000Y-71725000D01*
X103580000Y-66357440D01*
X104336000Y-66357440D01*
X104583765Y-66308157D01*
X104775000Y-66180377D01*
X104819334Y-66210000D01*
X104756191Y-66252191D01*
X104615843Y-66462235D01*
X104566560Y-66710000D01*
X104566560Y-67910000D01*
X104615843Y-68157765D01*
X104756191Y-68367809D01*
X104902000Y-68465236D01*
X104902000Y-68758956D01*
X104887073Y-68834000D01*
X104902000Y-68909043D01*
X104902000Y-68909047D01*
X104946212Y-69131316D01*
X105114629Y-69383371D01*
X105178254Y-69425884D01*
X105580116Y-69827746D01*
X105622629Y-69891371D01*
X105820641Y-70023678D01*
X105874681Y-70059787D01*
X105874682Y-70059787D01*
X105874683Y-70059788D01*
X106096952Y-70104000D01*
X106096956Y-70104000D01*
X106171999Y-70118927D01*
X106247042Y-70104000D01*
X113476370Y-70104000D01*
X113579001Y-70206631D01*
X113579001Y-71077560D01*
X113466000Y-71077560D01*
X113218235Y-71126843D01*
X113008191Y-71267191D01*
X112867843Y-71477235D01*
X112818560Y-71725000D01*
X112818560Y-73475000D01*
X112867843Y-73722765D01*
X113008191Y-73932809D01*
X113218235Y-74073157D01*
X113466000Y-74122440D01*
X113916000Y-74122440D01*
X114016000Y-74102549D01*
X114116000Y-74122440D01*
X114566000Y-74122440D01*
X114666000Y-74102549D01*
X114766000Y-74122440D01*
X115216000Y-74122440D01*
X115463765Y-74073157D01*
X115641000Y-73954731D01*
X115818235Y-74073157D01*
X115824000Y-74074304D01*
X115824001Y-75692000D01*
X113624042Y-75692000D01*
X113548999Y-75677073D01*
X113473956Y-75692000D01*
X113473952Y-75692000D01*
X113251683Y-75736212D01*
X113251682Y-75736213D01*
X113251681Y-75736213D01*
X113197641Y-75772322D01*
X112999629Y-75904629D01*
X112957116Y-75968254D01*
X112555252Y-76370118D01*
X112491630Y-76412629D01*
X112449119Y-76476251D01*
X112449118Y-76476252D01*
X112323213Y-76664683D01*
X112264073Y-76962000D01*
X112279001Y-77037048D01*
X112279001Y-78277560D01*
X112166000Y-78277560D01*
X112066000Y-78297451D01*
X111966000Y-78277560D01*
X111516000Y-78277560D01*
X111416000Y-78297451D01*
X111316000Y-78277560D01*
X110866000Y-78277560D01*
X110618235Y-78326843D01*
X110408191Y-78467191D01*
X110267843Y-78677235D01*
X110218560Y-78925000D01*
X110218560Y-80675000D01*
X110267843Y-80922765D01*
X110329001Y-81014293D01*
X110329001Y-81093622D01*
X110157720Y-81164569D01*
X109866569Y-81455720D01*
X109709000Y-81836126D01*
X109709000Y-82247874D01*
X109866569Y-82628280D01*
X110157720Y-82919431D01*
X110267476Y-82964893D01*
X109750251Y-83482119D01*
X109686630Y-83524629D01*
X109644119Y-83588251D01*
X109644118Y-83588252D01*
X109518213Y-83776683D01*
X109459073Y-84074000D01*
X109474001Y-84149048D01*
X109474000Y-90417158D01*
X109165375Y-90623375D01*
X108837161Y-91114582D01*
X108721908Y-91694000D01*
X108837161Y-92273418D01*
X109165375Y-92764625D01*
X109656582Y-93092839D01*
X110089744Y-93179000D01*
X110382256Y-93179000D01*
X110815418Y-93092839D01*
X111306625Y-92764625D01*
X111506000Y-92466239D01*
X111705375Y-92764625D01*
X112196582Y-93092839D01*
X112629744Y-93179000D01*
X112922256Y-93179000D01*
X113355418Y-93092839D01*
X113603586Y-92927018D01*
X114137294Y-93460727D01*
X114183349Y-93529653D01*
X114252274Y-93575707D01*
X114456406Y-93712105D01*
X114778501Y-93776173D01*
X114859804Y-93760001D01*
X116534198Y-93760001D01*
X116615499Y-93776173D01*
X116696800Y-93760001D01*
X116696802Y-93760001D01*
X116937593Y-93712105D01*
X117210651Y-93529653D01*
X117256708Y-93460724D01*
X117566855Y-93150578D01*
X117709744Y-93179000D01*
X118002256Y-93179000D01*
X118435418Y-93092839D01*
X118926625Y-92764625D01*
X119126000Y-92466239D01*
X119325375Y-92764625D01*
X119816582Y-93092839D01*
X120249744Y-93179000D01*
X120542256Y-93179000D01*
X120975418Y-93092839D01*
X121466625Y-92764625D01*
X121478816Y-92746381D01*
X121487843Y-92791765D01*
X121628191Y-93001809D01*
X121838235Y-93142157D01*
X122086000Y-93191440D01*
X123786000Y-93191440D01*
X124033765Y-93142157D01*
X124243809Y-93001809D01*
X124384157Y-92791765D01*
X124433440Y-92544000D01*
X124433440Y-92482674D01*
X124489094Y-92471604D01*
X124762152Y-92289152D01*
X124808209Y-92220223D01*
X125748226Y-91280207D01*
X125817152Y-91234152D01*
X125999604Y-90961094D01*
X126047500Y-90720303D01*
X126047500Y-90720299D01*
X126063671Y-90639001D01*
X126047500Y-90557703D01*
X126047500Y-76789297D01*
X126063671Y-76707999D01*
X126047500Y-76626702D01*
X126047500Y-76626697D01*
X125999604Y-76385906D01*
X125817152Y-76112848D01*
X125748223Y-76066791D01*
X125609209Y-75927777D01*
X125563152Y-75858848D01*
X125290094Y-75676396D01*
X125049303Y-75628500D01*
X125049301Y-75628500D01*
X124968000Y-75612328D01*
X124886699Y-75628500D01*
X122431211Y-75628500D01*
X122543431Y-75516280D01*
X122701000Y-75135874D01*
X122701000Y-74724126D01*
X122543431Y-74343720D01*
X122252280Y-74052569D01*
X121871874Y-73895000D01*
X121460126Y-73895000D01*
X121079720Y-74052569D01*
X120964289Y-74168000D01*
X119757630Y-74168000D01*
X119712070Y-74122440D01*
X119766000Y-74122440D01*
X120013765Y-74073157D01*
X120223809Y-73932809D01*
X120364157Y-73722765D01*
X120413440Y-73475000D01*
X120413440Y-71725000D01*
X120364157Y-71477235D01*
X120303000Y-71385708D01*
X120303000Y-70932714D01*
X120545434Y-70690280D01*
X120703003Y-70309874D01*
X120703003Y-69898126D01*
X120545434Y-69517720D01*
X120254283Y-69226569D01*
X119873877Y-69069000D01*
X119462129Y-69069000D01*
X119395254Y-69096700D01*
X119423440Y-68955000D01*
X119423440Y-68205000D01*
X119374157Y-67957235D01*
X119233809Y-67747191D01*
X119023765Y-67606843D01*
X118776000Y-67557560D01*
X117576000Y-67557560D01*
X117411500Y-67590281D01*
X117411500Y-61295297D01*
X117427671Y-61213999D01*
X117411500Y-61132701D01*
X117411500Y-61063698D01*
X117363604Y-60822906D01*
X117181152Y-60549848D01*
X116908094Y-60367396D01*
X116906514Y-60367082D01*
X116719209Y-60179776D01*
X116673152Y-60110848D01*
X116439910Y-59955000D01*
X116565330Y-59955000D01*
X117129507Y-59721310D01*
X117561310Y-59289507D01*
X117795000Y-58725330D01*
X117795000Y-58114670D01*
X117571461Y-57575000D01*
X117815602Y-57575000D01*
X118287894Y-57379371D01*
X118649371Y-57017894D01*
X118845000Y-56545602D01*
X118845000Y-56034398D01*
X118649371Y-55562106D01*
X118287894Y-55200629D01*
X117815602Y-55005000D01*
X117304398Y-55005000D01*
X116832106Y-55200629D01*
X116470629Y-55562106D01*
X116275000Y-56034398D01*
X116275000Y-56545602D01*
X116415583Y-56885000D01*
X115954670Y-56885000D01*
X115390493Y-57118690D01*
X115260000Y-57249183D01*
X115129507Y-57118690D01*
X114565330Y-56885000D01*
X114104417Y-56885000D01*
X114245000Y-56545602D01*
X114245000Y-56034398D01*
X114049371Y-55562106D01*
X113687894Y-55200629D01*
X113215602Y-55005000D01*
X112704398Y-55005000D01*
X112232106Y-55200629D01*
X111870629Y-55562106D01*
X111675000Y-56034398D01*
X111675000Y-56545602D01*
X111815583Y-56885000D01*
X111454670Y-56885000D01*
X110890493Y-57118690D01*
X110458690Y-57550493D01*
X110225000Y-58114670D01*
X110225000Y-58725330D01*
X110458690Y-59289507D01*
X110890493Y-59721310D01*
X110934501Y-59739539D01*
X110934501Y-59880500D01*
X108494586Y-59880500D01*
X108490157Y-59858235D01*
X108349809Y-59648191D01*
X108139765Y-59507843D01*
X107892000Y-59458560D01*
X106992000Y-59458560D01*
X106744235Y-59507843D01*
X106553000Y-59635623D01*
X106361765Y-59507843D01*
X106114000Y-59458560D01*
X105214000Y-59458560D01*
X104966235Y-59507843D01*
X104775000Y-59635623D01*
X104583765Y-59507843D01*
X104336000Y-59458560D01*
X103580000Y-59458560D01*
X103580000Y-55924666D01*
X103642958Y-55426302D01*
X103811305Y-55001107D01*
X104080101Y-54631142D01*
X104432462Y-54339644D01*
X104846244Y-54144933D01*
X105328662Y-54052907D01*
X105421164Y-54050000D01*
X125177334Y-54050000D01*
X125675698Y-54112958D01*
G36*
X111898569Y-83898280D02*
X112189720Y-84189431D01*
X112570126Y-84347000D01*
X112736448Y-84347000D01*
X112649000Y-84558119D01*
X112649000Y-85113881D01*
X112741017Y-85336031D01*
X112700956Y-85344000D01*
X112700952Y-85344000D01*
X112478683Y-85388212D01*
X112478682Y-85388213D01*
X112478681Y-85388213D01*
X112290251Y-85514118D01*
X112226629Y-85556629D01*
X112184118Y-85620251D01*
X111813218Y-85991152D01*
X111783881Y-85979000D01*
X111228119Y-85979000D01*
X110998000Y-86074318D01*
X110998000Y-84389630D01*
X111778712Y-83608919D01*
X111898569Y-83898280D01*
X111898569Y-83898280D01*
G37*
X111898569Y-83898280D02*
X112189720Y-84189431D01*
X112570126Y-84347000D01*
X112736448Y-84347000D01*
X112649000Y-84558119D01*
X112649000Y-85113881D01*
X112741017Y-85336031D01*
X112700956Y-85344000D01*
X112700952Y-85344000D01*
X112478683Y-85388212D01*
X112478682Y-85388213D01*
X112478681Y-85388213D01*
X112290251Y-85514118D01*
X112226629Y-85556629D01*
X112184118Y-85620251D01*
X111813218Y-85991152D01*
X111783881Y-85979000D01*
X111228119Y-85979000D01*
X110998000Y-86074318D01*
X110998000Y-84389630D01*
X111778712Y-83608919D01*
X111898569Y-83898280D01*
G36*
X115168235Y-81273157D02*
X115416000Y-81322440D01*
X115866000Y-81322440D01*
X115966000Y-81302549D01*
X116066000Y-81322440D01*
X116516000Y-81322440D01*
X116616000Y-81302549D01*
X116716000Y-81322440D01*
X117166000Y-81322440D01*
X117266000Y-81302549D01*
X117366000Y-81322440D01*
X117816000Y-81322440D01*
X117916000Y-81302549D01*
X118016000Y-81322440D01*
X118466000Y-81322440D01*
X118566000Y-81302549D01*
X118666000Y-81322440D01*
X119116000Y-81322440D01*
X119216000Y-81302549D01*
X119316000Y-81322440D01*
X119596410Y-81322440D01*
X119554328Y-81534000D01*
X119570501Y-81615306D01*
X119570501Y-83508016D01*
X119403881Y-83439000D01*
X118848119Y-83439000D01*
X118334663Y-83651680D01*
X117941680Y-84044663D01*
X117856000Y-84251513D01*
X117770320Y-84044663D01*
X117377337Y-83651680D01*
X116863881Y-83439000D01*
X116308119Y-83439000D01*
X115794663Y-83651680D01*
X115755987Y-83690356D01*
X114453000Y-82387370D01*
X114453000Y-81322440D01*
X114566000Y-81322440D01*
X114813765Y-81273157D01*
X114991000Y-81154731D01*
X115168235Y-81273157D01*
X115168235Y-81273157D01*
G37*
X115168235Y-81273157D02*
X115416000Y-81322440D01*
X115866000Y-81322440D01*
X115966000Y-81302549D01*
X116066000Y-81322440D01*
X116516000Y-81322440D01*
X116616000Y-81302549D01*
X116716000Y-81322440D01*
X117166000Y-81322440D01*
X117266000Y-81302549D01*
X117366000Y-81322440D01*
X117816000Y-81322440D01*
X117916000Y-81302549D01*
X118016000Y-81322440D01*
X118466000Y-81322440D01*
X118566000Y-81302549D01*
X118666000Y-81322440D01*
X119116000Y-81322440D01*
X119216000Y-81302549D01*
X119316000Y-81322440D01*
X119596410Y-81322440D01*
X119554328Y-81534000D01*
X119570501Y-81615306D01*
X119570501Y-83508016D01*
X119403881Y-83439000D01*
X118848119Y-83439000D01*
X118334663Y-83651680D01*
X117941680Y-84044663D01*
X117856000Y-84251513D01*
X117770320Y-84044663D01*
X117377337Y-83651680D01*
X116863881Y-83439000D01*
X116308119Y-83439000D01*
X115794663Y-83651680D01*
X115755987Y-83690356D01*
X114453000Y-82387370D01*
X114453000Y-81322440D01*
X114566000Y-81322440D01*
X114813765Y-81273157D01*
X114991000Y-81154731D01*
X115168235Y-81273157D01*
G36*
X116263906Y-77231604D02*
X116504697Y-77279500D01*
X124396501Y-77279500D01*
X124396501Y-79280560D01*
X123022000Y-79280560D01*
X122774235Y-79329843D01*
X122564191Y-79470191D01*
X122472751Y-79607040D01*
X122252280Y-79386569D01*
X121871874Y-79229000D01*
X121460126Y-79229000D01*
X121079720Y-79386569D01*
X120788569Y-79677720D01*
X120631000Y-80058126D01*
X120631000Y-80131567D01*
X120413440Y-80349128D01*
X120413440Y-78925000D01*
X120364157Y-78677235D01*
X120223809Y-78467191D01*
X120013765Y-78326843D01*
X119766000Y-78277560D01*
X119316000Y-78277560D01*
X119216000Y-78297451D01*
X119116000Y-78277560D01*
X118666000Y-78277560D01*
X118566000Y-78297451D01*
X118466000Y-78277560D01*
X118016000Y-78277560D01*
X117916000Y-78297451D01*
X117816000Y-78277560D01*
X117366000Y-78277560D01*
X117266000Y-78297451D01*
X117166000Y-78277560D01*
X116716000Y-78277560D01*
X116616000Y-78297451D01*
X116516000Y-78277560D01*
X116066000Y-78277560D01*
X115966000Y-78297451D01*
X115866000Y-78277560D01*
X115416000Y-78277560D01*
X115168235Y-78326843D01*
X114991000Y-78445269D01*
X114813765Y-78326843D01*
X114566000Y-78277560D01*
X114116000Y-78277560D01*
X114016000Y-78297451D01*
X113916000Y-78277560D01*
X113803000Y-78277560D01*
X113803000Y-77277630D01*
X113864630Y-77216000D01*
X116240553Y-77216000D01*
X116263906Y-77231604D01*
X116263906Y-77231604D01*
G37*
X116263906Y-77231604D02*
X116504697Y-77279500D01*
X124396501Y-77279500D01*
X124396501Y-79280560D01*
X123022000Y-79280560D01*
X122774235Y-79329843D01*
X122564191Y-79470191D01*
X122472751Y-79607040D01*
X122252280Y-79386569D01*
X121871874Y-79229000D01*
X121460126Y-79229000D01*
X121079720Y-79386569D01*
X120788569Y-79677720D01*
X120631000Y-80058126D01*
X120631000Y-80131567D01*
X120413440Y-80349128D01*
X120413440Y-78925000D01*
X120364157Y-78677235D01*
X120223809Y-78467191D01*
X120013765Y-78326843D01*
X119766000Y-78277560D01*
X119316000Y-78277560D01*
X119216000Y-78297451D01*
X119116000Y-78277560D01*
X118666000Y-78277560D01*
X118566000Y-78297451D01*
X118466000Y-78277560D01*
X118016000Y-78277560D01*
X117916000Y-78297451D01*
X117816000Y-78277560D01*
X117366000Y-78277560D01*
X117266000Y-78297451D01*
X117166000Y-78277560D01*
X116716000Y-78277560D01*
X116616000Y-78297451D01*
X116516000Y-78277560D01*
X116066000Y-78277560D01*
X115966000Y-78297451D01*
X115866000Y-78277560D01*
X115416000Y-78277560D01*
X115168235Y-78326843D01*
X114991000Y-78445269D01*
X114813765Y-78326843D01*
X114566000Y-78277560D01*
X114116000Y-78277560D01*
X114016000Y-78297451D01*
X113916000Y-78277560D01*
X113803000Y-78277560D01*
X113803000Y-77277630D01*
X113864630Y-77216000D01*
X116240553Y-77216000D01*
X116263906Y-77231604D01*
G36*
X117523213Y-74026317D02*
X117691630Y-74278371D01*
X117755252Y-74320882D01*
X118850116Y-75415746D01*
X118892629Y-75479371D01*
X119090641Y-75611678D01*
X119115816Y-75628500D01*
X117348000Y-75628500D01*
X117348000Y-74086238D01*
X117413765Y-74073157D01*
X117518597Y-74003110D01*
X117523213Y-74026317D01*
X117523213Y-74026317D01*
G37*
X117523213Y-74026317D02*
X117691630Y-74278371D01*
X117755252Y-74320882D01*
X118850116Y-75415746D01*
X118892629Y-75479371D01*
X119090641Y-75611678D01*
X119115816Y-75628500D01*
X117348000Y-75628500D01*
X117348000Y-74086238D01*
X117413765Y-74073157D01*
X117518597Y-74003110D01*
X117523213Y-74026317D01*
G36*
X111760000Y-61547672D02*
X111841303Y-61531500D01*
X115736068Y-61531500D01*
X115760501Y-61555934D01*
X115760500Y-69233662D01*
X115753000Y-69195956D01*
X115753000Y-69195952D01*
X115708788Y-68973683D01*
X115696305Y-68955000D01*
X115615454Y-68833999D01*
X115540371Y-68721629D01*
X115476746Y-68679116D01*
X115145884Y-68348254D01*
X115103371Y-68284629D01*
X114851317Y-68116212D01*
X114629048Y-68072000D01*
X114629043Y-68072000D01*
X114554000Y-68057073D01*
X114478957Y-68072000D01*
X108507217Y-68072000D01*
X108539440Y-67910000D01*
X108539440Y-66710000D01*
X108490157Y-66462235D01*
X108349809Y-66252191D01*
X108286666Y-66210000D01*
X108349809Y-66167809D01*
X108490157Y-65957765D01*
X108539440Y-65710000D01*
X108539440Y-64510000D01*
X108490157Y-64262235D01*
X108349809Y-64052191D01*
X108283673Y-64008000D01*
X108349809Y-63963809D01*
X108490157Y-63753765D01*
X108539440Y-63506000D01*
X108539440Y-62306000D01*
X108490157Y-62058235D01*
X108349809Y-61848191D01*
X108286666Y-61806000D01*
X108349809Y-61763809D01*
X108490157Y-61553765D01*
X108494586Y-61531500D01*
X111678698Y-61531500D01*
X111760000Y-61547672D01*
X111760000Y-61547672D01*
G37*
X111760000Y-61547672D02*
X111841303Y-61531500D01*
X115736068Y-61531500D01*
X115760501Y-61555934D01*
X115760500Y-69233662D01*
X115753000Y-69195956D01*
X115753000Y-69195952D01*
X115708788Y-68973683D01*
X115696305Y-68955000D01*
X115615454Y-68833999D01*
X115540371Y-68721629D01*
X115476746Y-68679116D01*
X115145884Y-68348254D01*
X115103371Y-68284629D01*
X114851317Y-68116212D01*
X114629048Y-68072000D01*
X114629043Y-68072000D01*
X114554000Y-68057073D01*
X114478957Y-68072000D01*
X108507217Y-68072000D01*
X108539440Y-67910000D01*
X108539440Y-66710000D01*
X108490157Y-66462235D01*
X108349809Y-66252191D01*
X108286666Y-66210000D01*
X108349809Y-66167809D01*
X108490157Y-65957765D01*
X108539440Y-65710000D01*
X108539440Y-64510000D01*
X108490157Y-64262235D01*
X108349809Y-64052191D01*
X108283673Y-64008000D01*
X108349809Y-63963809D01*
X108490157Y-63753765D01*
X108539440Y-63506000D01*
X108539440Y-62306000D01*
X108490157Y-62058235D01*
X108349809Y-61848191D01*
X108286666Y-61806000D01*
X108349809Y-61763809D01*
X108490157Y-61553765D01*
X108494586Y-61531500D01*
X111678698Y-61531500D01*
X111760000Y-61547672D01*
G04 #@! TD*
M02*
