M48
;DRILL file {KiCad (5.0.0)} date 12/19/18 13:36:56
;FORMAT={-:-/ absolute / inch / decimal}
FMAT,2
INCH,TZ
T1C0.0157
T2C0.0300
T3C0.0394
T4C0.0492
%
G90
G05
M72
T1
X4.19Y-2.84
X4.2091Y-3.32
X4.29Y-3.44
X4.36Y-3.23
X4.39Y-2.54
X4.44Y-3.28
X4.55Y-2.97
X4.55Y-3.05
X4.67Y-2.76
X4.7113Y-2.76
X4.79Y-2.95
X4.79Y-3.16
X4.8709Y-3.32
T2
X4.39Y-3.34
X4.39Y-3.44
X4.49Y-3.34
X4.49Y-3.44
X4.59Y-3.34
X4.59Y-3.44
X4.69Y-3.34
X4.69Y-3.44
T3
X4.4Y-2.3
X4.4984Y-2.3
X4.5772Y-2.3
X4.6756Y-2.3
X4.24Y-3.61
X4.34Y-3.61
X4.44Y-3.61
X4.54Y-3.61
X4.64Y-3.61
X4.74Y-3.61
X4.84Y-3.61
T4
X4.3075Y-2.2545G85X4.3075Y-2.1778
G05
X4.7681Y-2.2545G85X4.7681Y-2.1778
G05
T0
M30
