G04 #@! TF.GenerationSoftware,KiCad,Pcbnew,(5.0.0)*
G04 #@! TF.CreationDate,2018-12-19T13:36:55-06:00*
G04 #@! TF.ProjectId,ESP-01_Flasher_Hardware,4553502D30315F466C61736865725F48,rev?*
G04 #@! TF.SameCoordinates,Original*
G04 #@! TF.FileFunction,Paste,Top*
G04 #@! TF.FilePolarity,Positive*
%FSLAX46Y46*%
G04 Gerber Fmt 4.6, Leading zero omitted, Abs format (unit mm)*
G04 Created by KiCad (PCBNEW (5.0.0)) date 12/19/18 13:36:55*
%MOMM*%
%LPD*%
G01*
G04 APERTURE LIST*
%ADD10R,0.900000X1.200000*%
%ADD11R,1.200000X0.750000*%
%ADD12R,1.400000X1.600000*%
%ADD13R,0.450000X1.750000*%
G04 APERTURE END LIST*
D10*
G04 #@! TO.C,D3*
X103886000Y-67310000D03*
X103886000Y-65110000D03*
G04 #@! TD*
D11*
G04 #@! TO.C,C1*
X118176000Y-68580000D03*
X120076000Y-68580000D03*
G04 #@! TD*
D10*
G04 #@! TO.C,D1*
X107442000Y-67310000D03*
X107442000Y-65110000D03*
G04 #@! TD*
G04 #@! TO.C,D2*
X105664000Y-65110000D03*
X105664000Y-67310000D03*
G04 #@! TD*
G04 #@! TO.C,R1*
X107442000Y-60706000D03*
X107442000Y-62906000D03*
G04 #@! TD*
G04 #@! TO.C,R2*
X105664000Y-62906000D03*
X105664000Y-60706000D03*
G04 #@! TD*
G04 #@! TO.C,R3*
X103886000Y-60706000D03*
X103886000Y-62906000D03*
G04 #@! TD*
D12*
G04 #@! TO.C,SW1*
X123722000Y-80728000D03*
X123722000Y-87928000D03*
X126722000Y-80728000D03*
X126722000Y-87928000D03*
G04 #@! TD*
G04 #@! TO.C,SW2*
X103910000Y-80728000D03*
X103910000Y-87928000D03*
X106910000Y-80728000D03*
X106910000Y-87928000D03*
G04 #@! TD*
D13*
G04 #@! TO.C,U2*
X111091000Y-79800000D03*
X111741000Y-79800000D03*
X112391000Y-79800000D03*
X113041000Y-79800000D03*
X113691000Y-79800000D03*
X114341000Y-79800000D03*
X114991000Y-79800000D03*
X115641000Y-79800000D03*
X116291000Y-79800000D03*
X116941000Y-79800000D03*
X117591000Y-79800000D03*
X118241000Y-79800000D03*
X118891000Y-79800000D03*
X119541000Y-79800000D03*
X119541000Y-72600000D03*
X118891000Y-72600000D03*
X118241000Y-72600000D03*
X117591000Y-72600000D03*
X116941000Y-72600000D03*
X116291000Y-72600000D03*
X115641000Y-72600000D03*
X114991000Y-72600000D03*
X114341000Y-72600000D03*
X113691000Y-72600000D03*
X113041000Y-72600000D03*
X112391000Y-72600000D03*
X111741000Y-72600000D03*
X111091000Y-72600000D03*
G04 #@! TD*
M02*
